<svg width="720" height="720" viewBox="0 0 720 720" fill="none" xmlns="http://www.w3.org/2000/svg">
<g clip-path="url(#clip0)">
<path d="M610.23 580.3L609.59 580.01C602.313 576.634 594.093 575.876 586.321 577.864C578.549 579.852 571.702 584.464 566.94 590.92C554.215 608.627 537.559 623.144 518.28 633.33C498.109 643.769 475.742 649.254 453.03 649.33C374.35 649.65 311.41 587.26 311.03 508.63C311.03 508.42 311.03 508.22 311.03 508.01C309.59 499.686 305.256 492.137 298.793 486.697C292.33 481.256 284.153 478.273 275.705 478.273C267.257 478.273 259.08 481.256 252.617 486.697C246.154 492.137 241.82 499.686 240.38 508.01V508.26C240.55 626.54 335.1 720.48 453.35 720C487.419 719.885 520.972 711.658 551.23 696C580.068 680.745 604.998 659.042 624.08 632.58C627.102 628.383 629.156 623.568 630.094 618.483C631.033 613.397 630.833 608.166 629.508 603.167C628.184 598.168 625.768 593.525 622.435 589.571C619.102 585.617 614.933 582.451 610.23 580.3V580.3Z" fill="white"/>
<path d="M222.94 70.66C301.62 70.34 364.56 132.73 364.94 211.36C364.94 211.57 364.94 211.77 364.94 211.98C364.94 212.19 365.01 212.3 365.04 212.46H364.9V517C364.9 526.184 368.549 534.993 375.043 541.487C381.537 547.982 390.346 551.63 399.53 551.63H400.98C410.157 551.619 418.954 547.966 425.438 541.472C431.922 534.979 435.563 526.177 435.56 517V212.45H435.43C435.43 212.3 435.51 212.14 435.54 211.98V211.74C435.42 93.46 340.86 -0.48 222.62 2.18395e-07C188.549 0.103155 154.994 8.33078 124.74 24C117.783 27.6679 111.042 31.7313 104.55 36.17C100.352 39.0303 96.8272 42.7702 94.2199 47.1298C91.6127 51.4894 89.9857 56.3643 89.4518 61.416C88.918 66.4676 89.4902 71.5749 91.1287 76.3832C92.7672 81.1915 95.4327 85.5854 98.9401 89.26L99.43 89.77C105.138 95.7803 112.794 99.5697 121.035 100.463C129.276 101.357 137.566 99.297 144.43 94.65C148.689 91.7414 153.106 89.0706 157.66 86.65C177.835 76.1942 200.217 70.7119 222.94 70.66V70.66Z" fill="white"/>
<path d="M311.91 212.45C311.718 189.186 302.354 166.938 285.853 150.538C269.353 134.138 247.048 124.911 223.783 124.861C200.519 124.811 178.174 133.942 161.603 150.271C145.032 166.6 135.573 188.807 135.28 212.07C135.28 212.2 135.28 212.32 135.28 212.45C135.28 212.59 135.28 212.71 135.28 212.84C135.332 236.264 144.686 258.708 161.286 275.235C177.886 291.761 200.371 301.017 223.795 300.965C247.219 300.913 269.663 291.559 286.19 274.959C302.716 258.359 311.972 235.874 311.92 212.45H311.91Z" fill="white"/>
</g>
<defs>
<clipPath id="clip0">
<rect width="720" height="720" fill="white"/>
</clipPath>
</defs>
</svg>
