<svg id="Layer_1" data-name="Layer 1" xmlns="http://www.w3.org/2000/svg" viewBox="0 0 720 720"><defs><style>.cls-1{fill:#247ba0;}</style></defs><title>logoc</title><path class="cls-1" d="M610.23,580.3l-.64-.29a34.8,34.8,0,0,0-42.65,10.91,141.08,141.08,0,0,1-48.66,42.41,143,143,0,0,1-65.25,16c-78.68.32-141.62-62.07-142-140.7,0-.21,0-.41,0-.62a35.85,35.85,0,0,0-70.65,0l0,.25C240.55,626.54,335.1,720.48,453.35,720a214.56,214.56,0,0,0,97.88-24,212.06,212.06,0,0,0,72.85-63.42A35,35,0,0,0,610.23,580.3Z"/><path class="cls-1" d="M222.94,70.66c78.68-.32,141.62,62.07,142,140.7,0,.21,0,.41,0,.62s.07.32.1.48h-.14V517a34.63,34.63,0,0,0,34.63,34.63h1.45A34.62,34.62,0,0,0,435.56,517V212.45h-.13c0-.15.08-.31.11-.47l0-.24C435.42,93.46,340.86-.48,222.62,0a214.24,214.24,0,0,0-97.88,24,206,206,0,0,0-20.19,12.17,35,35,0,0,0-5.61,53.09l.49.51a35,35,0,0,0,45,4.88,139.81,139.81,0,0,1,13.23-8A142.58,142.58,0,0,1,222.94,70.66Z"/><path class="cls-1" d="M311.91,212.45h0a88.32,88.32,0,0,0-176.63-.38c0,.13,0,.25,0,.38h0c0,.14,0,.26,0,.39a88.32,88.32,0,0,0,176.64-.39Z"/></svg>